<svg width="30" height="30" viewBox="0 0 30 30" fill="none" xmlns="http://www.w3.org/2000/svg" xmlns:xlink="http://www.w3.org/1999/xlink">
<path d="M0,10.683C0,6.944 0,5.074 0.728,3.646C1.368,2.389 2.389,1.368 3.646,0.728C5.074,0 6.944,0 10.683,0L18.837,0C22.576,0 24.446,0 25.874,0.728C27.131,1.368 28.152,2.389 28.792,3.646C29.52,5.074 29.52,6.944 29.52,10.683L29.52,18.837C29.52,22.576 29.52,24.446 28.792,25.874C28.152,27.131 27.131,28.152 25.874,28.792C24.446,29.52 22.576,29.52 18.837,29.52L10.683,29.52C6.944,29.52 5.074,29.52 3.646,28.792C2.389,28.152 1.368,27.131 0.728,25.874C0,24.446 0,22.576 0,18.837L0,10.683Z" fill="#00005B"/>
<path d="M6.326,20.87L6.326,7.599C6.326,7.509 6.363,7.457 6.449,7.457C7.724,7.457 8.998,7.38 10.273,7.38C12.343,7.38 14.583,8.101 15.369,10.308C15.554,10.849 15.652,11.404 15.652,11.984C15.652,13.093 15.406,14.009 14.912,14.731C13.534,16.749 11.144,16.718 9.003,16.718L9.003,20.857C9.02,20.98 8.917,21.038 8.818,21.038L6.474,21.038C6.375,21.038 6.326,20.986 6.326,20.87ZM9.015,9.947L9.015,14.28C9.864,14.343 10.753,14.35 11.569,14.074C12.47,13.809 12.963,13.014 12.963,12.062C12.988,11.25 12.554,10.471 11.816,10.179C11.009,9.837 9.885,9.817 9.015,9.947Z" fill="#9999FF"/>
<path d="M17.325,10.766L19.49,10.766C19.609,10.767 19.716,10.854 19.748,10.974C19.906,11.342 19.926,11.786 19.927,12.184C20.298,11.732 20.746,11.356 21.247,11.073C21.786,10.755 22.396,10.593 23.014,10.606C23.117,10.591 23.207,10.686 23.193,10.793L23.193,13.305C23.193,13.402 23.126,13.451 22.994,13.451C22.078,13.384 20.651,13.611 19.985,14.364L19.985,20.897C19.985,21.022 19.932,21.084 19.826,21.084L17.503,21.084C17.389,21.101 17.289,20.994 17.305,20.876L17.305,13.783C17.305,12.832 17.324,11.853 17.186,10.912C17.164,10.825 17.243,10.744 17.325,10.766Z" fill="#9999FF"/>
</svg>
