<svg width="30" height="30" viewBox="0 0 30 30" fill="none" xmlns="http://www.w3.org/2000/svg" xmlns:xlink="http://www.w3.org/1999/xlink">
<path d="M-0.76,10.923C-0.76,7.184 -0.76,5.314 -0.032,3.886C0.608,2.629 1.629,1.608 2.886,0.968C4.314,0.24 6.184,0.24 9.923,0.24L18.077,0.24C21.816,0.24 23.686,0.24 25.114,0.968C26.371,1.608 27.392,2.629 28.032,3.886C28.76,5.314 28.76,7.184 28.76,10.923L28.76,19.077C28.76,22.816 28.76,24.686 28.032,26.114C27.392,27.371 26.371,28.392 25.114,29.032C23.686,29.76 21.816,29.76 18.077,29.76L9.923,29.76C6.184,29.76 4.314,29.76 2.886,29.032C1.629,28.392 0.608,27.371 -0.032,26.114C-0.76,24.686 -0.76,22.816 -0.76,19.077L-0.76,10.923Z" fill="#001E36"/>
<path d="M5.566,21.87L5.566,8.889C5.566,8.8 5.603,8.75 5.689,8.75C6.96,8.75 8.23,8.674 9.502,8.674C11.565,8.674 13.799,9.38 14.582,11.538C14.766,12.068 14.865,12.61 14.865,13.178C14.865,14.263 14.619,15.159 14.127,15.865C12.752,17.838 10.37,17.808 8.235,17.808L8.235,21.857C8.252,21.977 8.149,22.034 8.05,22.034L5.713,22.034C5.615,22.034 5.566,21.983 5.566,21.87ZM8.247,11.185L8.247,15.424C9.094,15.486 9.98,15.492 10.793,15.222C11.691,14.963 12.183,14.185 12.183,13.254C12.208,12.46 11.776,11.698 11.039,11.412C10.236,11.078 9.115,11.058 8.247,11.185Z" fill="#31A8FF"/>
<path d="M22.536,14.586C22.164,14.39 21.768,14.246 21.358,14.16C20.831,14.036 18.755,13.602 18.754,14.688C18.772,15.294 19.735,15.591 20.16,15.764C21.653,16.277 23.342,17.193 23.308,19.034C23.354,21.327 21.133,22.243 19.229,22.243C18.238,22.254 17.205,22.1 16.298,21.674C16.212,21.629 16.156,21.531 16.16,21.431L16.16,19.237C16.15,19.149 16.244,19.072 16.318,19.136C17.207,19.673 18.26,19.934 19.288,19.948C19.742,19.948 20.642,19.904 20.635,19.237C20.635,18.597 19.559,18.303 19.13,18.14C18.508,17.918 17.919,17.611 17.377,17.226C16.621,16.687 16.147,15.822 16.16,14.87C16.155,12.712 18.2,11.743 20.041,11.743C20.902,11.735 21.826,11.799 22.627,12.149C22.743,12.183 22.766,12.304 22.766,12.413L22.766,14.464C22.773,14.592 22.632,14.635 22.536,14.586Z" fill="#31A8FF"/>
</svg>
