<svg width="30" height="30" viewBox="0 0 30 30" fill="none" xmlns="http://www.w3.org/2000/svg" xmlns:xlink="http://www.w3.org/1999/xlink">
<path d="M0.48,10.683C0.48,6.944 0.48,5.074 1.208,3.646C1.848,2.389 2.869,1.368 4.126,0.728C5.554,0 7.424,0 11.163,0L19.317,0C23.056,0 24.926,0 26.354,0.728C27.611,1.368 28.632,2.389 29.272,3.646C30,5.074 30,6.944 30,10.683L30,18.837C30,22.576 30,24.446 29.272,25.874C28.632,27.131 27.611,28.152 26.354,28.792C24.926,29.52 23.056,29.52 19.317,29.52L11.163,29.52C7.424,29.52 5.554,29.52 4.126,28.792C2.869,28.152 1.848,27.131 1.208,25.874C0.48,24.446 0.48,22.576 0.48,18.837L0.48,10.683Z" fill="#330000"/>
<path d="M14.785,18.552L10.211,18.552L9.28,21.517C9.254,21.627 9.153,21.705 9.042,21.7L6.725,21.7C6.593,21.7 6.547,21.625 6.587,21.476L10.547,9.777C10.587,9.655 10.627,9.517 10.666,9.361C10.718,9.09 10.745,8.814 10.745,8.538C10.734,8.457 10.806,8.385 10.884,8.396L14.033,8.396C14.125,8.396 14.178,8.43 14.191,8.498L18.686,21.497C18.726,21.632 18.686,21.7 18.568,21.7L15.993,21.7C15.903,21.71 15.817,21.648 15.795,21.558L14.785,18.552ZM10.924,15.992L14.053,15.992C13.539,14.236 12.958,12.502 12.488,10.732C11.981,12.505 11.427,14.271 10.924,15.992Z" fill="#FF9A00"/>
<path d="M21.36,10.549C21.158,10.557 20.956,10.522 20.768,10.445C20.581,10.368 20.411,10.251 20.27,10.102C20.13,9.947 20.021,9.765 19.95,9.566C19.878,9.367 19.846,9.156 19.855,8.944C19.847,8.735 19.883,8.526 19.96,8.332C20.037,8.138 20.153,7.962 20.3,7.817C20.446,7.674 20.618,7.561 20.807,7.486C20.996,7.411 21.197,7.375 21.399,7.381C21.875,7.381 22.247,7.526 22.518,7.817C22.655,7.968 22.761,8.146 22.831,8.339C22.9,8.533 22.932,8.738 22.924,8.944C22.932,9.157 22.899,9.369 22.826,9.568C22.753,9.766 22.641,9.948 22.498,10.102C22.349,10.253 22.17,10.371 21.975,10.448C21.779,10.525 21.569,10.559 21.36,10.549ZM19.993,21.496L19.993,11.788C19.993,11.666 20.046,11.605 20.152,11.605L22.587,11.605C22.693,11.605 22.746,11.666 22.746,11.788L22.746,21.496C22.746,21.632 22.693,21.7 22.587,21.7L20.171,21.7C20.053,21.7 19.993,21.632 19.993,21.496Z" fill="#FF9A00"/>
</svg>
