<svg width="40" height="32" viewBox="0 0 40 32" fill="none" xmlns="http://www.w3.org/2000/svg" xmlns:xlink="http://www.w3.org/1999/xlink">
<path d="M-0.5,28.644C-0.5,30.054 0.652,31.197 2.072,31.197L2.109,31.197C0.668,31.197 -0.5,30.054 -0.5,28.644Z" transform="rotate(0 0.805 29.92)" fill="#FBBC05"/>
<path d="M21.601,8.86L21.601,15.525L30.587,8.277L30.587,1.84C30.587,0.43 29.434,-0.713 28.015,-0.713L8.548,-0.713L8.531,8.86L21.601,8.86Z" transform="rotate(0 19.559 7.406)" fill="#FBBC05"/>
<path d="M21.602,22.192L8.51,22.192L8.494,31.197L28.015,31.197C29.437,31.197 30.587,30.055 30.587,28.644L30.587,22.833L21.602,15.528L21.602,22.192L21.602,22.192Z" transform="rotate(0 19.541 23.362)" fill="#34A853"/>
<path d="M8.549,-0.713L-0.5,8.86L8.533,8.86L8.549,-0.713Z" transform="rotate(0 4.024 4.074)" fill="#EA4335"/>
<path d="M-0.5,22.192L-0.5,28.644C-0.5,30.054 0.668,31.196 2.109,31.196L8.494,31.196L8.509,22.192L-0.5,22.192L-0.5,22.192Z" transform="rotate(0 4.005 26.694)" fill="#1967D2"/>
<path d="M8.533,8.86L-0.5,8.86L-0.5,22.192L8.509,22.192L8.533,8.86Z" transform="rotate(0 4.017 15.526)" fill="#4285F4"/>
<path d="M38.487,26.375L38.487,4.464C37.981,1.556 34.791,4.889 34.791,4.889L30.589,8.278L30.589,22.83L36.604,27.721C38.776,28.006 38.487,26.375 38.487,26.375Z" transform="rotate(0 34.544 15.514)" fill="#34A853"/>
<path d="M21.601,15.525L30.589,22.832L30.589,8.279L21.601,15.525Z" transform="rotate(0 26.095 15.556)" fill="#188038"/>
</svg>
