<svg width="36" height="38" viewBox="0 0 36 38" fill="none" xmlns="http://www.w3.org/2000/svg" xmlns:xlink="http://www.w3.org/1999/xlink">
<path d="M4,0.964C1.791,0.964 0,2.755 0,4.964L0,32.964C0,35.174 1.791,36.964 4,36.964L32,36.964C34.209,36.964 36,35.174 36,32.964L36,4.964C36,2.755 34.209,0.964 32,0.964L4,0.964Z" clip-rule="evenodd" fill-rule="evenodd" transform="rotate(0 18 18.964)" fill="#FFFFFF"/>
<path d="M4,0.964C1.791,0.964 0,2.755 0,4.964L0,32.964C0,35.174 1.791,36.964 4,36.964L32,36.964C34.209,36.964 36,35.174 36,32.964L36,4.964C36,2.755 34.209,0.964 32,0.964L4,0.964ZM24.802,15.651C24.802,15.651 22.856,21.529 22.697,22.014C22.207,18.33 21.712,14.647 21.213,10.964C17.897,10.964 16.124,13.237 15.187,15.636L12.622,22.029C12.607,21.57 12.262,15.706 12.262,15.706C12.058,12.766 9.262,10.977 7,10.977L9.739,26.964C13.213,26.95 15.086,24.691 16.067,22.291C16.067,22.291 18.157,17.093 18.243,16.857C18.258,17.078 19.743,26.963 19.743,26.963C23.231,26.963 25.105,24.843 26.113,22.527L31,10.978C27.555,10.978 25.739,13.238 24.802,15.651Z" clip-rule="evenodd" fill-rule="evenodd" transform="rotate(0 18 18.964)" fill="#4353FF"/>
</svg>
