<svg width="34" height="36" viewBox="0 0 34 36" fill="none" xmlns="http://www.w3.org/2000/svg" xmlns:xlink="http://www.w3.org/1999/xlink">
<path d="M2.249,17.536C2.249,23.381 5.649,28.416 10.566,30.809L3.531,11.534C2.686,13.422 2.249,15.467 2.249,17.536ZM17,32.287C18.713,32.287 20.361,31.986 21.904,31.45L21.799,31.254L17.262,18.831L12.842,31.685C14.149,32.078 15.548,32.287 17,32.287ZM19.027,10.618L24.362,26.481L25.84,21.564C26.468,19.524 26.952,18.059 26.952,16.791C26.952,14.96 26.298,13.704 25.748,12.737C24.99,11.507 24.297,10.474 24.297,9.271C24.297,7.911 25.317,6.656 26.782,6.656L26.965,6.656C24.247,4.161 20.69,2.779 17,2.785C14.557,2.785 12.152,3.392 10.002,4.551C7.852,5.711 6.023,7.387 4.682,9.428L5.623,9.454C7.166,9.454 9.546,9.258 9.546,9.258C10.357,9.219 10.448,10.383 9.651,10.474C9.651,10.474 8.853,10.579 7.951,10.618L13.338,26.598L16.568,16.921L14.267,10.618C13.751,10.59 13.237,10.546 12.724,10.487C11.926,10.435 12.018,9.219 12.815,9.258C12.815,9.258 15.248,9.454 16.699,9.454C18.242,9.454 20.622,9.258 20.622,9.258C21.42,9.219 21.525,10.383 20.727,10.474C20.727,10.474 19.929,10.566 19.027,10.618ZM24.415,30.286C26.646,28.988 28.498,27.128 29.785,24.891C31.073,22.653 31.75,20.117 31.751,17.536C31.751,14.973 31.097,12.567 29.946,10.461C30.18,12.778 29.829,15.116 28.926,17.261L24.415,30.286ZM17,34.536C12.491,34.536 8.167,32.745 4.979,29.557C1.791,26.369 0,22.045 0,17.536C0,13.027 1.791,8.703 4.979,5.515C8.167,2.327 12.491,0.536 17,0.536C21.509,0.536 25.833,2.327 29.021,5.515C32.209,8.703 34,13.027 34,17.536C34,22.045 32.209,26.369 29.021,29.557C25.833,32.745 21.509,34.536 17,34.536Z" transform="rotate(0 17 17.536)" fill="#126FC2"/>
</svg>
