<svg width="20" height="22" viewBox="0 0 20 22" fill="none" xmlns="http://www.w3.org/2000/svg" xmlns:xlink="http://www.w3.org/1999/xlink">
<path d="M12.5,10.969C12.5,11.689 12.37,12.404 12.116,13.078C11.441,13.333 10.726,13.464 10.004,13.464L9.996,13.464C9.275,13.464 8.561,13.334 7.886,13.08C7.631,12.406 7.5,11.69 7.5,10.969L7.5,10.96C7.5,10.24 7.63,9.525 7.884,8.851C8.559,8.596 9.274,8.465 9.996,8.464L10.004,8.464C10.726,8.464 11.441,8.594 12.116,8.849C12.37,9.523 12.5,10.238 12.5,10.958L12.5,10.967L12.5,10.969ZM19.861,9.298L14.023,9.298L18.151,5.17C17.827,4.716 17.465,4.289 17.07,3.894C16.676,3.5 16.249,3.139 15.794,2.815L11.667,6.941L11.667,1.103C11.118,1.011 10.562,0.965 10.005,0.964L9.995,0.964C9.438,0.965 8.883,1.011 8.334,1.103L8.334,6.941L4.206,2.813C3.751,3.137 3.324,3.499 2.93,3.894C2.535,4.289 2.174,4.715 1.851,5.17L5.977,9.298L0.139,9.298C0.139,9.298 0,10.394 0,10.961L0,10.968C0,11.525 0.047,12.082 0.139,12.631L5.977,12.631L1.849,16.759C2.498,17.67 3.295,18.467 4.206,19.116L8.333,14.988L8.333,20.825C8.882,20.917 9.437,20.964 9.993,20.964L10.007,20.964C10.563,20.964 11.118,20.917 11.667,20.825L11.667,14.988L15.794,19.116C16.249,18.791 16.676,18.43 17.07,18.035C17.465,17.64 17.826,17.213 18.15,16.759L14.023,12.631L19.861,12.631C19.953,12.083 20,11.528 20,10.971L20,10.957C20,10.401 19.953,9.846 19.861,9.298Z" fill="#FFFFFF"/>
</svg>
