<svg width="34" height="36" viewBox="0 0 34 36" fill="none" xmlns="http://www.w3.org/2000/svg" xmlns:xlink="http://www.w3.org/1999/xlink">
<path d="M5.363,5.734C6.465,6.629 6.878,6.561 8.949,6.422L28.466,5.251C28.879,5.251 28.535,4.838 28.398,4.77L25.155,2.426C24.534,1.945 23.706,1.392 22.12,1.53L3.223,2.909C2.535,2.977 2.396,3.323 2.671,3.597L5.363,5.734ZM6.534,10.283L6.534,30.817C6.534,31.92 7.085,32.334 8.327,32.264L29.776,31.024C31.018,30.956 31.156,30.197 31.156,29.3L31.156,8.904C31.156,8.009 30.812,7.526 30.052,7.594L7.638,8.904C6.811,8.973 6.534,9.388 6.534,10.283ZM27.708,11.383C27.845,12.003 27.708,12.624 27.088,12.695L26.054,12.901L26.054,28.06C25.156,28.543 24.329,28.819 23.639,28.819C22.535,28.819 22.258,28.473 21.431,27.441L14.672,16.828L14.672,27.095L16.81,27.58C16.81,27.58 16.81,28.82 15.085,28.82L10.327,29.095C10.19,28.82 10.327,28.131 10.81,27.993L12.05,27.649L12.05,14.073L10.33,13.934C10.191,13.313 10.537,12.418 11.501,12.349L16.605,12.005L23.641,22.755L23.641,13.244L21.846,13.039C21.709,12.28 22.26,11.729 22.95,11.661L27.708,11.383ZM1.637,1.048L21.294,-0.399C23.707,-0.606 24.329,-0.469 25.846,0.635L32.121,5.045C33.155,5.802 33.5,6.009 33.5,6.836L33.5,31.024C33.5,32.539 32.949,33.437 31.019,33.573L8.19,34.952C6.743,35.022 6.051,34.815 5.292,33.849L0.671,27.853C-0.156,26.75 -0.5,25.924 -0.5,24.958L-0.5,3.458C-0.5,2.219 0.052,1.184 1.637,1.048Z" transform="rotate(0 16.5 17.242)" fill="#000000"/>
</svg>
