<svg width="22" height="20" viewBox="0 0 22 20" fill="none" xmlns="http://www.w3.org/2000/svg" xmlns:xlink="http://www.w3.org/1999/xlink">
<path d="M5.5,-0.385C3.988,-0.385 2.64,0.248 1.623,1.239C0.632,2.229 0,3.578 0,5.119C0,6.633 0.632,7.982 1.623,9L11,18.385L20.377,9C21.368,8.009 22,6.661 22,5.119C22,3.606 21.368,2.257 20.377,1.239C19.387,0.248 18.04,-0.385 16.5,-0.385C14.988,-0.385 13.64,0.248 12.623,1.239C11.632,2.229 11,3.578 11,5.119C11,3.606 10.368,2.257 9.377,1.239C8.387,0.248 7.04,-0.385 5.5,-0.385Z" transform="rotate(0 11 9)" fill="#F6ED1E"/>
</svg>
